<?xml version="1.0" standalone="no"?>
<!DOCTYPE svg PUBLIC "-//W3C//DTD SVG 20010904//EN"
 "http://www.w3.org/TR/2001/REC-SVG-20010904/DTD/svg10.dtd">
<svg version="1.0" xmlns="http://www.w3.org/2000/svg"
 width="480.000000pt" height="480.000000pt" viewBox="0 0 480.000000 480.000000"
 preserveAspectRatio="xMidYMid meet">
<metadata>
Created by potrace 1.11, written by Peter Selinger 2001-2013
</metadata>
<g transform="translate(0.000000,480.000000) scale(0.100000,-0.100000)"
fill="#000000" stroke="none">
<path d="M3270 4563 c0 -8 -17 -11 -50 -9 -27 1 -50 -2 -50 -7 0 -5 -8 -3 -17
4 -11 10 -14 10 -9 2 4 -8 2 -13 -4 -13 -6 0 -8 -4 -5 -10 3 -6 -1 -7 -10 -3
-12 4 -13 8 -5 13 8 5 7 9 -5 13 -9 4 -13 3 -10 -3 3 -6 2 -10 -4 -10 -6 0 -8
-8 -5 -17 4 -11 3 -14 -3 -7 -4 6 -35 10 -68 9 -46 -1 -60 -5 -59 -16 1 -9
-12 -15 -39 -17 -23 -1 -47 -8 -54 -14 -7 -6 -16 -8 -20 -4 -3 3 0 6 7 6 7 0
10 3 6 7 -4 4 -16 -3 -28 -17 -11 -14 -16 -18 -12 -10 7 13 5 13 -9 2 -9 -8
-21 -11 -26 -8 -6 4 -8 -2 -6 -12 3 -16 -3 -18 -38 -16 -23 1 -36 0 -29 -3 6
-3 12 -9 12 -15 0 -6 -7 -7 -16 -4 -8 3 -13 2 -10 -3 3 -5 -4 -11 -15 -14 -12
-3 -18 -10 -14 -16 3 -7 0 -8 -9 -5 -9 4 -18 -1 -22 -10 -3 -9 -11 -13 -17 -9
-7 4 -8 0 -3 -12 6 -16 4 -16 -11 -4 -13 11 -15 11 -9 1 5 -9 -4 -26 -28 -49
-20 -20 -36 -41 -36 -47 0 -6 -5 -4 -10 4 -8 12 -10 10 -10 -9 0 -18 -4 -22
-20 -18 -11 3 -18 1 -15 -3 3 -5 1 -12 -5 -15 -8 -5 -7 -11 1 -21 7 -9 8 -14
3 -12 -5 2 -10 -1 -11 -7 0 -5 3 -9 9 -7 5 1 7 -2 3 -8 -3 -6 -9 -8 -13 -6 -9
5 -32 -20 -25 -28 4 -3 -1 -6 -11 -6 -9 0 -14 -5 -11 -10 4 -6 1 -17 -5 -25
-6 -8 -8 -20 -4 -26 5 -8 2 -10 -7 -7 -14 6 -19 -12 -22 -84 -1 -12 -5 -14
-11 -8 -17 17 -29 11 -15 -7 8 -10 9 -14 2 -10 -6 4 -14 3 -17 -2 -4 -5 1 -11
11 -13 15 -3 15 -4 0 -19 -12 -13 -13 -19 -4 -29 10 -10 8 -12 -5 -7 -15 5
-16 2 -8 -19 7 -17 7 -23 0 -19 -6 3 -10 -3 -10 -14 0 -11 -5 -23 -10 -26 -7
-4 -7 -12 0 -25 7 -13 7 -21 0 -25 -5 -3 -10 -11 -10 -16 0 -6 6 -7 13 -3 8 5
8 2 -2 -9 -7 -9 -10 -17 -5 -17 4 0 -1 -7 -12 -16 -10 -8 -13 -13 -6 -9 14 7
17 -11 3 -19 -5 -3 -7 -20 -6 -38 2 -18 -2 -39 -8 -47 -7 -8 -7 -12 -2 -9 7 4
10 -25 10 -82 0 -56 -4 -86 -10 -82 -5 3 -4 -1 2 -9 10 -12 10 -18 1 -27 -8
-8 -8 -12 -1 -12 12 0 10 -80 -2 -101 -5 -7 -4 -10 2 -6 12 7 11 -42 -1 -61
-3 -6 -2 -14 4 -17 8 -5 7 -12 -2 -23 -7 -9 -8 -13 -2 -10 6 4 10 -6 10 -27 0
-21 -4 -31 -10 -27 -6 3 -5 -1 1 -9 10 -12 10 -18 1 -27 -8 -8 -8 -12 -1 -12
12 0 10 -80 -2 -101 -5 -7 -4 -10 2 -6 12 7 10 -54 -2 -73 -5 -9 -4 -11 3 -6
16 10 15 -7 0 -23 -7 -8 -8 -11 -2 -8 6 3 10 -7 10 -28 0 -21 -4 -31 -10 -27
-6 3 -5 -1 1 -9 10 -12 10 -18 1 -27 -8 -8 -8 -12 -1 -12 12 0 10 -80 -2 -101
-5 -7 -4 -10 2 -6 12 7 11 -42 -1 -61 -3 -6 -2 -14 4 -17 8 -5 7 -12 -2 -23
-7 -9 -8 -13 -2 -10 6 4 10 -6 10 -27 0 -21 -4 -31 -10 -27 -6 3 -5 -1 1 -9
10 -12 10 -18 1 -27 -8 -8 -8 -12 -1 -12 12 0 10 -80 -2 -101 -5 -7 -4 -10 2
-6 5 4 10 -6 10 -23 0 -18 -4 -27 -11 -23 -6 4 -5 0 1 -8 10 -12 10 -18 1 -27
-7 -7 -8 -12 -2 -12 5 0 10 -9 11 -20 1 -13 -2 -18 -10 -13 -9 5 -9 3 0 -8 10
-12 10 -18 1 -27 -7 -7 -8 -12 -2 -12 5 0 10 -9 11 -20 1 -13 -2 -18 -10 -13
-9 5 -9 3 0 -8 10 -12 10 -18 1 -27 -7 -7 -8 -12 -2 -12 5 0 10 -9 11 -20 1
-13 -2 -18 -10 -13 -9 5 -9 3 0 -8 10 -12 10 -18 1 -27 -8 -8 -8 -12 -1 -12 6
0 10 -17 9 -39 0 -24 -5 -37 -11 -34 -5 3 -4 0 3 -8 14 -15 16 -33 2 -24 -5 3
-3 -7 5 -21 10 -19 11 -33 4 -46 -7 -13 -6 -18 2 -18 7 0 4 -9 -7 -22 -18 -22
-18 -22 0 -8 18 14 18 13 11 -10 -10 -32 -10 -32 -1 -52 5 -10 12 -16 17 -13
8 6 4 -28 -6 -44 -3 -5 -1 -12 4 -15 5 -4 8 -24 7 -46 -2 -35 -1 -38 13 -27
12 9 13 9 7 0 -4 -8 -2 -13 5 -13 7 0 4 -7 -7 -16 -10 -8 -13 -13 -6 -9 10 5
17 -8 10 -18 -2 -2 4 -12 12 -22 13 -17 13 -18 0 -10 -12 7 -13 6 -3 -6 10
-12 10 -18 0 -28 -6 -7 -7 -12 -2 -11 6 2 17 2 25 1 13 -1 13 -2 0 -11 -12 -8
-12 -10 5 -10 17 0 17 -2 5 -10 -13 -9 -13 -10 0 -10 13 0 13 -1 0 -10 -13 -8
-13 -10 1 -10 9 0 20 -7 23 -16 6 -15 4 -15 -11 -3 -16 12 -16 11 0 -8 11 -12
16 -26 13 -32 -4 -5 -2 -12 4 -16 6 -4 7 -11 4 -17 -4 -7 -2 -8 4 -4 7 4 17 4
23 0 8 -4 7 -9 -2 -15 -11 -7 -9 -9 6 -9 17 0 17 -2 5 -10 -13 -8 -13 -10 2
-10 9 0 20 -5 24 -12 4 -6 3 -8 -3 -5 -6 4 -13 0 -16 -8 -4 -9 -1 -12 9 -8 9
3 14 -1 14 -12 0 -9 5 -13 10 -10 9 5 15 -14 11 -37 0 -4 9 -10 20 -13 13 -4
18 -12 15 -21 -3 -9 -1 -12 4 -9 6 4 22 -3 36 -14 15 -12 23 -21 19 -21 -5 0
-18 8 -29 17 -12 9 -6 2 12 -16 21 -21 39 -31 49 -27 14 6 14 4 2 -11 -8 -9
-9 -14 -3 -10 7 4 15 0 18 -9 4 -10 12 -14 22 -10 15 6 15 4 3 -11 -7 -10 -10
-15 -5 -11 5 4 18 2 30 -4 18 -9 19 -9 11 3 -5 8 1 2 15 -13 25 -29 47 -38 34
-15 -4 6 2 4 13 -6 11 -9 24 -14 28 -10 5 5 3 -1 -5 -11 -10 -14 -11 -17 -2
-12 7 4 20 2 28 -5 13 -10 17 -10 25 2 5 8 9 9 9 4 0 -6 9 -16 21 -23 12 -8
18 -9 14 -3 -3 6 -1 11 4 11 6 0 11 -6 11 -14 0 -10 7 -12 22 -8 16 4 19 2 13
-8 -5 -9 -4 -11 3 -6 25 15 51 15 45 0 -4 -10 0 -12 13 -7 10 4 15 2 11 -4 -3
-5 0 -10 8 -10 8 0 11 5 8 11 -3 6 0 5 8 -1 17 -17 32 -17 23 -1 -5 8 -1 8 10
-1 15 -13 19 -13 27 0 7 11 9 11 9 -3 0 -10 5 -18 11 -18 5 0 7 5 3 11 -4 8
-1 8 12 1 11 -5 25 -7 33 -4 10 3 12 -1 8 -14 -7 -18 -6 -18 7 -1 15 19 31 24
20 5 -5 -8 -2 -9 9 -5 10 3 17 2 17 -4 0 -13 39 -2 65 20 18 15 19 15 6 -1 -7
-10 -10 -18 -5 -19 5 0 19 -2 32 -3 12 -2 22 1 22 5 0 5 7 5 17 2 10 -4 14 -2
10 4 -3 5 0 10 8 10 8 0 12 -4 10 -8 -3 -4 2 -10 11 -13 9 -3 12 -2 8 5 -3 6
3 5 15 -3 12 -7 21 -22 22 -33 0 -20 0 -20 9 0 7 16 9 17 9 3 1 -9 7 -19 14
-21 9 -4 9 -6 -1 -6 -7 -1 -10 -6 -7 -11 5 -8 11 -7 21 0 11 10 13 6 9 -18 -3
-25 0 -30 12 -25 12 5 14 3 8 -7 -6 -10 -4 -12 11 -6 10 4 15 4 11 0 -4 -4 1
-17 10 -28 15 -17 15 -19 1 -8 -12 10 -18 10 -24 1 -4 -7 -3 -9 3 -6 16 10 78
-48 98 -92 15 -35 20 -39 34 -29 9 7 13 8 9 4 -4 -5 0 -15 10 -23 11 -10 12
-12 2 -8 -10 4 -9 2 2 -8 10 -8 15 -17 11 -21 -4 -4 3 -9 16 -13 13 -3 20 -11
17 -19 -3 -7 -1 -16 4 -19 6 -4 10 -1 10 5 0 6 5 8 11 5 6 -4 8 -14 5 -22 -3
-8 -2 -12 3 -8 5 3 16 2 25 -1 14 -5 14 -9 4 -23 -7 -9 -8 -13 -4 -9 5 5 15
-1 23 -12 8 -11 21 -20 29 -20 13 0 18 -12 15 -32 0 -5 2 -7 7 -7 24 4 39 -4
48 -23 6 -13 9 -17 7 -10 -4 17 12 15 28 -5 10 -11 10 -14 2 -9 -7 4 -13 2
-13 -3 0 -6 8 -11 17 -11 9 0 28 -14 42 -31 24 -27 41 -36 79 -38 6 -1 12 -7
12 -15 0 -7 9 -16 20 -19 13 -3 18 -1 13 6 -4 7 1 6 10 -2 15 -12 17 -11 17 3
0 9 5 16 11 16 5 0 8 -4 4 -9 -3 -5 -1 -12 4 -15 5 -4 8 2 7 11 -2 10 2 21 8
25 8 5 7 8 -1 8 -7 0 -13 5 -13 11 0 5 5 7 11 3 8 -5 8 -1 0 14 -8 15 -8 23 1
28 7 5 8 3 3 -6 -5 -9 -4 -11 4 -6 9 6 9 11 0 22 -9 11 -8 14 5 14 9 0 16 5
16 10 0 6 -4 10 -10 10 -5 0 -10 5 -10 11 0 5 5 7 10 4 6 -4 10 5 10 19 0 14
5 26 10 26 6 0 10 5 10 10 0 6 -8 10 -17 10 -15 0 -16 2 -3 9 8 6 18 7 23 4 5
-3 4 4 -2 16 -9 17 -9 20 2 15 11 -4 14 4 13 36 -1 27 2 39 9 36 7 -2 12 2 12
10 0 7 -4 11 -8 8 -10 -6 -2 38 9 45 7 5 8 24 3 62 0 5 -6 7 -13 3 -7 -5 -9
-2 -5 8 4 12 1 14 -15 10 -17 -4 -20 -2 -15 11 3 9 0 18 -9 21 -10 4 -13 2 -8
-7 4 -6 -2 -3 -13 8 -11 11 -18 22 -16 25 2 3 -13 13 -34 23 -21 9 -29 15 -18
12 19 -5 20 -5 1 10 -10 8 -24 11 -30 8 -6 -4 -4 2 4 12 8 10 10 16 3 12 -13
-8 -53 12 -53 27 0 5 10 1 22 -10 20 -17 19 -16 -2 12 -18 23 -28 29 -38 21
-9 -7 -11 -5 -6 8 6 14 4 16 -6 10 -10 -6 -12 -4 -7 10 6 13 3 16 -11 13 -11
-3 -19 0 -20 8 -1 8 -3 21 -4 29 -1 11 -4 12 -15 3 -8 -6 -13 -7 -12 -2 4 22
-2 34 -18 35 -11 0 -13 3 -5 6 6 2 9 10 5 16 -4 7 -1 7 9 -1 13 -10 18 -10 24
-1 5 8 3 9 -6 4 -9 -6 -11 -4 -6 4 5 7 14 10 22 7 8 -3 13 0 11 7 -1 7 6 11
16 11 9 -1 17 4 17 12 0 8 5 15 10 15 6 1 15 2 22 3 6 0 13 7 16 15 3 9 0 11
-8 6 -8 -5 -11 -4 -6 3 4 6 13 9 21 5 8 -3 15 0 15 6 0 6 12 16 26 21 18 7 24
15 20 27 -6 14 -4 14 11 2 11 -9 14 -10 9 -1 -10 16 32 75 49 68 9 -3 12 2 10
15 -3 16 0 19 12 15 13 -5 14 -4 3 9 -11 13 -10 14 4 9 9 -4 16 -3 15 2 -4 23
2 36 14 31 8 -3 14 1 14 8 0 7 -7 11 -16 8 -12 -3 -11 -2 2 7 9 6 14 16 11 22
-4 7 -2 8 4 4 7 -4 12 -1 12 8 0 9 6 16 13 16 8 0 7 4 -3 10 -13 8 -12 10 3
10 11 0 15 4 11 12 -4 6 1 17 11 25 18 13 18 13 -1 14 -14 0 -15 2 -4 6 23 9
30 26 17 42 -9 12 -9 13 1 7 7 -4 12 -2 12 4 0 6 5 8 10 5 6 -3 10 -1 10 4 0
6 -4 11 -8 11 -5 0 -9 6 -9 14 0 8 6 12 14 9 9 -3 11 0 7 10 -3 8 0 18 6 22 8
5 8 10 0 20 -13 16 3 55 23 55 7 0 6 4 -3 10 -9 6 -11 10 -3 10 7 0 10 7 6 17
-5 12 -3 14 8 8 11 -6 12 -5 2 6 -16 16 -17 43 -2 33 7 -4 7 1 -1 16 -11 20
-10 22 4 17 21 -8 20 2 -1 20 -17 14 -17 14 -1 9 27 -8 32 13 6 23 -13 6 -17
10 -10 10 7 1 11 5 7 10 -3 6 1 16 8 23 12 11 12 15 -2 25 -13 11 -13 12 -1 8
11 -4 15 1 15 18 -1 13 -4 28 -8 34 -4 6 0 19 9 27 10 10 11 16 3 16 -9 0 -8
4 1 15 7 8 8 15 3 15 -12 0 -12 73 1 82 7 5 6 8 -3 8 -11 0 -11 3 -1 15 7 8 8
15 3 15 -12 0 -12 73 1 82 7 5 6 8 -3 8 -11 0 -11 3 -1 15 7 8 8 15 3 15 -12
0 -12 73 1 82 7 5 7 8 -2 8 -9 0 -10 5 -2 19 6 12 6 22 1 25 -10 7 -8 66 2 83
4 7 3 14 -2 17 -10 7 -9 25 2 43 4 6 3 14 -2 17 -10 7 -8 66 2 83 4 7 3 14 -2
17 -10 7 -9 25 2 43 4 6 3 14 -2 17 -10 7 -8 66 2 83 4 7 3 14 -2 17 -10 7 -9
25 2 43 4 6 3 14 -2 17 -10 6 -9 66 2 83 4 5 3 13 0 17 -12 11 -10 120 1 128
7 5 6 8 -3 8 -11 0 -11 3 -1 15 7 8 8 15 3 15 -12 0 -12 73 1 82 7 5 6 8 -3 8
-11 0 -11 3 -1 15 7 8 8 15 3 15 -12 0 -12 73 1 82 7 5 6 8 -3 8 -11 0 -11 3
-1 15 7 8 8 15 3 15 -12 0 -12 73 1 82 7 5 6 8 -3 8 -11 0 -11 3 -1 15 7 8 8
15 3 15 -11 0 -11 59 0 77 4 6 3 14 -3 18 -5 3 -10 11 -10 16 0 6 6 7 13 3 9
-6 9 -5 0 7 -12 15 -13 83 -1 95 4 3 0 17 -8 29 -10 16 -12 25 -4 30 12 8 4
25 -13 25 -8 0 -8 -3 1 -9 11 -6 10 -10 -1 -19 -11 -9 -13 -8 -12 6 0 9 4 22
7 28 4 5 3 16 -1 23 -5 7 -7 26 -5 42 3 22 0 28 -9 23 -7 -5 -5 0 3 11 8 10
10 16 5 13 -6 -4 -15 5 -22 18 -12 26 -5 31 16 12 11 -10 10 -8 0 10 -8 12
-17 22 -21 22 -4 0 -8 10 -8 23 0 55 -10 75 -24 45 -3 -7 -4 -4 -1 7 2 11 0
27 -5 34 -5 9 -5 22 2 34 7 14 7 17 -1 13 -6 -4 -11 -2 -11 4 0 6 -5 8 -12 4
-8 -5 -9 -2 -5 9 3 9 1 19 -5 23 -7 4 -6 9 3 15 11 7 11 9 -2 9 -9 0 -22 7
-29 15 -11 13 -10 15 6 9 18 -5 18 -5 1 9 -14 11 -15 16 -5 20 11 4 11 6 0 6
-8 1 -10 6 -6 14 5 8 2 8 -9 -2 -15 -12 -17 -11 -17 12 0 14 -7 28 -16 31 -9
3 -14 13 -11 20 5 13 -18 31 -36 27 -4 -1 -2 9 4 21 11 21 11 22 -4 9 -15 -12
-17 -11 -17 3 0 11 -4 14 -12 10 -8 -5 -7 0 2 11 9 11 10 16 3 11 -7 -4 -13
-2 -13 3 0 6 -5 11 -11 11 -5 0 -7 -5 -3 -12 4 -7 3 -8 -5 -4 -9 6 -9 11 1 24
8 10 9 13 1 9 -6 -4 -20 4 -31 18 -11 14 -23 25 -27 25 -5 0 0 -9 9 -19 13
-14 14 -21 5 -27 -7 -4 -10 -3 -6 3 4 6 -2 18 -13 28 -11 10 -17 21 -15 26 3
4 0 11 -6 15 -8 5 -9 3 -4 -6 5 -8 3 -11 -6 -8 -8 3 -13 11 -11 18 3 11 0 11
-13 0 -13 -11 -14 -10 -9 5 5 13 4 16 -4 11 -7 -4 -12 -3 -12 2 0 6 -9 8 -19
5 -20 -5 -46 28 -33 42 4 4 -3 3 -15 -4 -25 -13 -36 -14 -29 -3 2 4 -5 14 -17
22 -20 12 -21 12 -8 -3 20 -25 5 -21 -20 6 -12 12 -18 15 -14 7 8 -13 6 -13
-8 -2 -9 8 -25 11 -38 7 -18 -6 -21 -4 -16 9 4 11 3 15 -4 11 -5 -4 -16 -2
-24 5 -9 7 -15 8 -20 0 -4 -7 -13 -6 -28 2 -12 6 -23 11 -24 10 -11 -7 -23 0
-17 10 4 7 3 8 -5 4 -6 -4 -19 -2 -28 6 -12 9 -15 9 -9 1 4 -8 2 -13 -4 -13
-6 0 -8 -6 -5 -12 4 -7 -1 -4 -9 6 -19 24 -66 28 -67 6 0 -10 -3 -9 -9 5 -5
11 -9 14 -9 6 -1 -10 -7 -10 -27 4 -15 9 -24 13 -21 8 4 -5 -7 -10 -23 -10
-17 0 -27 5 -23 10 4 6 1 7 -8 1 -20 -12 -122 -12 -131 1 -5 6 -8 6 -8 -2z
m-270 -49 c0 -8 -19 -13 -24 -6 -3 5 1 9 9 9 8 0 15 -2 15 -3z m-490 -318 c0
-2 -7 -7 -16 -10 -8 -3 -12 -2 -9 4 6 10 25 14 25 6z m893 -149 c-3 -5 9 -6
26 -4 17 3 31 2 31 -2 0 -4 15 -7 34 -6 26 0 32 -2 25 -11 -7 -9 -2 -12 20
-10 17 1 27 -2 24 -8 -4 -5 1 -7 12 -2 15 5 16 4 6 -8 -10 -12 -8 -14 13 -12
15 2 26 0 26 -4 0 -4 9 -17 20 -30 11 -12 17 -28 13 -34 -4 -6 0 -5 9 2 14 11
16 10 11 -7 -3 -12 -1 -21 5 -21 5 0 13 -7 16 -16 3 -8 2 -12 -3 -9 -5 3 -13
0 -17 -6 -4 -7 -3 -9 3 -6 6 4 16 0 23 -8 10 -12 10 -15 -1 -15 -7 0 -3 -10
11 -25 18 -19 21 -27 11 -39 -8 -9 -8 -15 -1 -18 6 -2 11 -24 13 -51 1 -26 5
-47 8 -47 8 0 3 -45 -6 -59 -3 -6 0 -11 7 -11 8 -1 6 -6 -6 -15 -11 -8 -14
-15 -7 -15 7 0 9 -4 6 -10 -3 -5 -1 -10 6 -10 8 0 8 -4 -1 -15 -10 -12 -10
-15 1 -15 9 -1 8 -5 -5 -15 -11 -8 -14 -15 -7 -15 7 0 9 -4 6 -10 -3 -5 0 -10
7 -10 10 0 10 -2 -1 -9 -9 -6 -10 -10 -2 -16 9 -5 9 -10 0 -21 -9 -11 -9 -14
0 -14 7 0 9 -5 4 -12 -12 -19 -10 -118 2 -118 5 0 1 -7 -9 -15 -11 -8 -14 -15
-7 -15 7 0 9 -4 6 -10 -3 -5 0 -10 7 -10 9 0 9 -3 -2 -10 -13 -8 -13 -10 -1
-10 12 0 12 -3 3 -12 -16 -16 -15 -31 1 -22 8 5 8 2 -2 -9 -11 -14 -11 -17 0
-17 11 0 11 -2 -1 -10 -13 -8 -13 -10 -1 -10 12 0 12 -3 3 -12 -16 -16 -15
-31 1 -22 8 5 8 2 -2 -9 -10 -13 -10 -17 -1 -17 10 0 10 -3 0 -15 -10 -12 -10
-15 1 -15 9 -1 8 -5 -5 -15 -11 -8 -14 -15 -7 -15 7 0 9 -4 6 -10 -3 -5 0 -10
7 -10 10 0 10 -2 -1 -9 -9 -6 -10 -10 -2 -16 9 -5 9 -10 0 -21 -9 -11 -9 -14
0 -14 7 0 9 -5 4 -12 -12 -19 -10 -118 2 -118 5 0 1 -7 -9 -15 -11 -8 -14 -15
-7 -15 7 0 9 -4 6 -10 -3 -5 0 -10 7 -10 9 0 9 -3 -2 -10 -13 -8 -13 -10 -1
-10 12 0 12 -3 3 -12 -16 -16 -15 -31 1 -22 8 5 8 2 -2 -9 -11 -14 -11 -17 0
-17 11 0 11 -2 -1 -10 -13 -8 -13 -10 -1 -10 12 0 12 -3 3 -12 -16 -16 -15
-31 1 -22 8 5 8 2 -2 -9 -10 -13 -10 -17 -1 -17 10 0 10 -3 0 -15 -10 -12 -10
-15 1 -15 9 -1 8 -5 -5 -15 -11 -8 -14 -15 -7 -15 7 0 9 -4 6 -10 -3 -5 0 -10
7 -10 10 0 10 -2 -1 -9 -9 -6 -10 -10 -2 -16 9 -5 9 -10 0 -21 -9 -11 -9 -14
0 -14 7 0 9 -5 4 -12 -12 -19 -10 -118 2 -118 5 0 1 -7 -9 -15 -11 -8 -14 -15
-7 -15 7 0 9 -4 6 -10 -3 -5 0 -10 7 -10 10 0 10 -2 -1 -9 -9 -6 -10 -10 -2
-16 9 -5 9 -10 0 -21 -9 -11 -9 -14 0 -14 7 0 9 -5 4 -12 -4 -7 -6 -21 -4 -32
2 -13 -1 -16 -11 -10 -8 5 -6 -2 4 -18 12 -18 14 -29 7 -34 -8 -4 -8 -9 0 -17
7 -7 7 -14 0 -24 -9 -9 -8 -13 0 -13 7 0 9 -5 4 -12 -4 -7 -6 -21 -4 -32 2
-13 -1 -16 -11 -10 -8 5 -6 -2 4 -18 12 -18 14 -29 7 -34 -8 -4 -8 -9 0 -17 7
-7 7 -14 0 -24 -9 -9 -8 -13 0 -13 7 0 9 -5 4 -12 -4 -7 -6 -21 -4 -32 2 -13
-1 -16 -11 -10 -8 5 -6 -2 4 -18 12 -18 14 -29 7 -34 -8 -4 -8 -9 0 -17 7 -7
7 -14 0 -24 -9 -10 -8 -13 2 -13 10 0 10 -3 2 -11 -6 -6 -9 -18 -6 -27 5 -11
3 -13 -8 -7 -12 8 -12 6 0 -8 11 -14 11 -17 0 -18 -10 0 -11 -2 -2 -6 9 -3 10
-10 3 -23 -7 -13 -6 -20 3 -23 6 -3 3 -6 -8 -6 -17 -1 -17 -3 -5 -11 8 -5 11
-10 6 -10 -5 0 -3 -7 4 -16 8 -8 9 -14 4 -13 -21 4 -48 -2 -39 -9 27 -20 13
-49 -20 -42 -5 1 -1 -7 9 -18 17 -20 17 -20 -3 -27 -12 -3 -21 -11 -21 -16 0
-6 5 -7 10 -4 6 3 10 3 10 0 0 -8 -61 -69 -73 -72 -12 -5 -46 -41 -41 -46 2
-2 -3 -4 -11 -4 -8 0 -12 5 -9 11 3 6 -1 3 -9 -6 -11 -14 -16 -15 -26 -5 -10
9 -11 8 -5 -8 7 -18 6 -19 -11 -5 -11 9 -16 10 -11 3 5 -9 -1 -13 -18 -14 -51
-3 -61 -4 -75 -13 -10 -7 -16 -5 -19 3 -4 11 -6 11 -13 0 -7 -12 -9 -12 -9 0
0 10 -3 11 -14 2 -9 -8 -16 -8 -20 -2 -4 6 -18 6 -36 1 -16 -5 -29 -5 -29 -2
1 4 1 14 0 22 -1 13 -2 13 -11 0 -6 -10 -10 -11 -10 -2 0 6 -8 12 -19 12 -22
0 -44 23 -33 35 4 5 1 5 -6 1 -10 -6 -10 -11 -1 -22 6 -8 10 -17 7 -19 -3 -3
-11 6 -18 20 -7 14 -20 25 -27 25 -9 0 -11 5 -7 13 5 7 0 6 -11 -3 -11 -9 -16
-10 -11 -3 4 7 2 13 -3 13 -6 0 -11 9 -11 19 0 14 -6 19 -20 16 -17 -3 -19 -1
-10 15 11 21 13 37 3 27 -8 -9 -33 12 -33 27 0 6 5 4 10 -4 5 -8 10 -10 10 -5
-1 6 -7 19 -15 29 -8 10 -12 23 -9 27 3 5 0 9 -7 9 -10 0 -10 3 -1 12 17 17
15 33 -3 18 -9 -7 -18 -10 -22 -6 -3 3 -1 6 5 6 8 0 9 7 2 25 -7 18 -6 25 3
26 9 0 9 2 0 6 -7 2 -13 9 -13 14 0 6 6 7 13 3 9 -6 9 -4 1 7 -6 8 -10 24 -9
36 1 12 -2 20 -7 17 -4 -3 -8 0 -8 5 0 6 8 11 18 11 14 0 14 2 3 9 -13 8 -13
12 0 27 8 10 9 15 3 11 -7 -4 -14 0 -18 8 -3 8 -1 15 5 15 6 0 7 5 4 10 -4 6
-12 8 -18 4 -7 -3 -4 1 5 9 13 10 15 16 6 25 -9 9 -9 12 0 12 16 0 15 27 0 33
-7 3 -4 6 7 7 18 1 18 2 -5 16 -14 8 -18 13 -8 10 14 -4 15 0 8 25 -5 18 -5
27 1 24 16 -11 10 7 -8 22 -10 8 -12 11 -4 7 9 -4 12 -2 9 7 -3 8 2 20 11 27
9 8 10 10 2 6 -9 -4 -12 -2 -9 7 3 8 1 22 -4 33 -7 13 -7 16 1 12 6 -4 11 -2
11 3 0 6 -6 11 -12 11 -9 0 -8 4 2 10 13 8 8 14 -11 12 -3 -1 -6 6 -6 13 0 10
4 12 12 5 15 -12 25 -3 18 15 -2 8 -12 11 -21 8 -10 -4 -7 3 8 16 14 12 19 19
11 15 -9 -4 -12 -2 -9 7 3 8 1 22 -4 33 -7 13 -7 16 1 12 6 -4 11 -2 11 3 0 6
-6 11 -12 11 -9 0 -8 4 2 10 14 9 7 14 -15 11 -5 -1 -2 5 7 12 13 10 15 16 6
25 -9 9 -9 12 0 12 16 0 15 27 0 33 -7 3 -4 6 7 7 18 1 18 2 -5 16 -14 8 -18
13 -10 11 12 -4 15 5 14 40 -1 26 -7 49 -15 54 -12 7 -11 9 2 9 12 0 14 8 11
31 -3 20 0 34 9 40 12 7 12 9 0 9 -8 0 -11 7 -8 19 2 10 0 26 -6 36 -7 13 -6
16 2 11 6 -4 11 -2 11 3 0 6 -4 11 -10 11 -5 0 -10 5 -10 11 0 6 7 8 16 5 15
-6 15 -4 0 19 -9 14 -13 25 -8 25 5 0 8 10 7 23 -2 13 -8 21 -16 19 -9 -1 -8
2 3 11 13 10 15 16 6 25 -9 9 -9 12 0 12 16 0 15 27 0 33 -7 3 -4 6 7 7 18 1
18 2 -5 16 -14 8 -18 13 -10 11 11 -3 15 2 14 22 -1 16 -7 25 -15 23 -9 -1 -8
2 3 11 13 10 15 16 6 25 -9 9 -9 12 0 12 16 0 15 27 0 33 -7 3 -4 6 7 7 18 1
18 2 -5 16 -14 8 -18 13 -10 11 12 -4 15 5 14 40 -1 26 -7 49 -15 54 -12 7
-11 9 2 9 12 0 14 8 11 31 -3 20 0 34 9 40 12 7 12 9 0 9 -8 0 -11 7 -8 19 2
10 0 26 -6 36 -7 13 -6 16 2 11 6 -4 11 -2 11 3 0 6 -4 11 -10 11 -5 0 -10 5
-10 11 0 6 7 8 16 5 15 -6 15 -4 0 19 -9 14 -13 25 -8 25 5 0 8 10 7 23 -2 13
-8 21 -16 19 -9 -1 -8 2 3 11 13 10 15 16 6 25 -9 9 -9 12 0 12 16 0 15 27 0
33 -7 3 -4 6 7 7 18 1 18 2 -5 16 -14 8 -18 13 -10 11 11 -3 15 2 14 22 -1 16
-7 25 -15 23 -9 -1 -8 2 3 11 13 10 15 16 6 25 -9 9 -9 12 0 12 7 0 12 7 12
15 0 8 -6 15 -12 15 -10 0 -10 2 -1 8 7 4 9 13 4 21 -11 17 -2 53 12 44 6 -4
7 -1 1 8 -13 21 -14 39 -2 39 6 0 5 7 -3 16 -11 14 -11 18 4 29 17 12 25 31 9
21 -5 -3 -9 1 -9 9 0 10 5 11 19 4 16 -8 17 -7 8 15 -6 16 -6 27 1 31 5 4 7
10 4 15 -3 4 5 10 16 13 18 5 19 8 9 27 -7 13 -8 20 -2 16 5 -3 13 1 16 10 3
9 12 14 20 11 10 -4 12 0 8 15 -3 14 -1 19 6 14 13 -8 43 5 45 20 1 5 5 8 10
7 4 -2 7 2 7 8 0 8 4 8 14 0 11 -9 16 -9 22 0 4 7 3 9 -3 6 -5 -3 -10 0 -10 7
0 8 9 11 24 8 13 -2 30 1 38 8 12 10 15 10 16 -1 0 -12 1 -12 6 0 5 11 7 11
14 0 6 -9 9 -10 9 -2 0 7 10 10 26 7 14 -3 23 -1 21 3 -3 5 10 8 28 8 18 0 31
-4 28 -8z m1026 -441 c8 -10 8 -16 -2 -24 -10 -9 -13 -6 -13 13 0 29 0 29 15
11z m-2099 -1942 c0 -8 -19 -13 -24 -6 -3 5 1 9 9 9 8 0 15 -2 15 -3z m115
-432 c-3 -3 -11 0 -18 7 -9 10 -8 11 6 5 10 -3 15 -9 12 -12z m98 -147 c-3 -9
-8 -14 -10 -11 -3 3 -2 9 2 15 9 16 15 13 8 -4z m1493 -955 c8 0 14 -5 14 -10
0 -7 -6 -7 -20 0 -11 6 -20 16 -19 23 0 9 2 9 6 0 2 -7 11 -13 19 -13z"/>
<path d="M3705 3780 c3 -5 8 -10 11 -10 2 0 4 5 4 10 0 6 -5 10 -11 10 -5 0
-7 -4 -4 -10z"/>
<path d="M3000 3762 c0 -5 7 -9 15 -9 8 0 12 4 9 9 -3 4 -9 8 -15 8 -5 0 -9
-4 -9 -8z"/>
<path d="M3950 4440 c0 -5 5 -10 11 -10 5 0 7 5 4 10 -3 6 -8 10 -11 10 -2 0
-4 -4 -4 -10z"/>
<path d="M2584 4322 c3 -5 0 -13 -6 -15 -9 -4 -10 -6 -1 -6 17 -1 25 16 12 25
-7 4 -9 3 -5 -4z"/>
<path d="M1691 4293 c5 -28 -2 -36 -16 -17 -15 19 -15 19 -9 -1 6 -16 4 -18
-6 -8 -9 9 -17 9 -26 2 -8 -7 -14 -6 -20 2 -5 8 -3 9 6 4 9 -6 11 -4 6 4 -6 9
-12 8 -26 -4 -12 -11 -20 -13 -25 -5 -9 15 -27 1 -21 -17 3 -8 1 -11 -4 -8 -6
3 -10 1 -10 -5 0 -6 -4 -9 -8 -6 -4 3 -7 -10 -6 -27 1 -18 -3 -36 -9 -40 -9
-6 -9 -10 1 -14 9 -4 7 -10 -8 -23 -15 -13 -17 -19 -8 -23 11 -4 10 -6 0 -6
-7 -1 -10 -6 -7 -11 3 -6 -1 -17 -10 -26 -13 -13 -13 -19 -3 -32 10 -12 10
-14 1 -8 -8 4 -13 1 -13 -9 0 -10 5 -13 12 -9 7 4 8 3 4 -5 -4 -6 -11 -9 -16
-6 -4 3 -10 -2 -14 -10 -3 -8 0 -15 6 -15 6 0 1 -12 -13 -27 -13 -15 -16 -21
-6 -14 12 9 17 10 17 2 0 -6 -7 -14 -15 -17 -18 -7 -16 -35 5 -51 15 -11 34
-8 26 5 -6 10 48 7 64 -3 8 -5 11 -4 6 3 -3 6 -1 14 5 18 8 4 9 3 5 -4 -4 -7
-2 -12 4 -12 6 0 8 -5 4 -12 -4 -7 -3 -8 4 -4 7 4 12 15 13 24 0 11 2 13 6 4
6 -16 33 3 33 25 0 9 5 11 13 7 7 -5 6 0 -3 11 -14 17 -13 18 2 12 12 -4 15
-2 11 8 -3 9 2 18 12 21 13 5 14 9 3 15 -10 7 -9 9 4 9 9 0 20 5 24 12 4 6 3
8 -4 4 -6 -3 -4 7 4 24 9 16 18 30 20 30 3 0 3 -4 -1 -9 -3 -5 -1 -12 4 -15
10 -7 9 13 -2 31 -8 13 8 27 22 18 6 -3 8 3 6 15 -2 11 1 19 7 17 6 -1 13 4
16 12 3 9 0 11 -8 6 -9 -5 -11 -4 -6 3 4 7 13 12 21 12 16 0 25 22 20 52 -4
23 -4 23 12 3 13 -16 15 -17 10 -2 -4 9 -2 17 3 17 6 0 9 3 9 8 -4 21 2 32 14
27 6 -4 4 0 -5 8 -10 8 -14 18 -10 22 4 5 1 5 -6 1 -7 -4 -10 -12 -7 -17 11
-16 -7 -10 -22 9 -12 14 -14 14 -10 1 5 -17 -26 -20 -40 -4 -5 4 -2 5 6 0 10
-6 12 -4 6 4 -5 9 -10 10 -18 2 -13 -13 -30 -15 -22 -2 3 5 1 13 -5 16 -6 4
-10 3 -9 -2z m-231 -413 c6 -11 8 -20 6 -20 -3 0 -10 9 -16 20 -6 11 -8 20 -6
20 3 0 10 -9 16 -20z"/>
<path d="M657 4203 c-10 -18 -17 -64 -9 -59 7 4 8 -13 3 -57 -1 -5 -5 -6 -9
-3 -4 2 -9 -4 -9 -15 -1 -10 3 -19 8 -19 6 0 7 4 4 10 -4 6 1 7 11 3 15 -5 15
-7 0 -15 -9 -5 -16 -14 -16 -19 0 -6 5 -7 10 -4 6 3 10 1 10 -4 0 -6 -8 -11
-17 -11 -17 -1 -17 -1 -1 -11 9 -5 15 -16 12 -24 -4 -8 -9 -13 -13 -11 -4 3
-8 -4 -8 -15 -1 -10 3 -19 8 -19 6 0 7 4 4 10 -4 6 1 7 11 3 15 -5 15 -7 0
-15 -9 -5 -16 -14 -16 -19 0 -6 5 -7 10 -4 6 3 10 1 10 -4 0 -6 -8 -11 -17
-11 -17 -1 -17 -1 -1 -11 9 -5 15 -16 12 -24 -4 -8 -9 -13 -13 -11 -4 3 -8 -4
-8 -15 -1 -10 3 -19 8 -19 6 0 7 4 4 10 -4 6 1 7 11 3 15 -5 15 -7 0 -15 -9
-5 -16 -14 -16 -19 0 -6 5 -7 10 -4 6 3 10 1 10 -4 0 -6 -8 -11 -17 -11 -17
-1 -17 -1 -1 -11 9 -5 15 -16 12 -24 -4 -8 -9 -13 -13 -11 -4 3 -8 -4 -8 -15
-1 -10 3 -19 8 -19 6 0 7 4 4 10 -4 6 1 7 11 3 15 -5 15 -7 0 -15 -9 -5 -16
-14 -16 -19 0 -6 5 -7 10 -4 6 3 10 1 10 -4 0 -6 -8 -11 -17 -11 -17 -1 -17
-1 -1 -11 9 -5 15 -16 12 -24 -4 -8 -9 -13 -13 -11 -4 3 -8 -4 -8 -15 -1 -10
3 -19 8 -19 6 0 7 4 4 10 -4 6 1 7 11 3 15 -5 15 -7 0 -15 -9 -5 -16 -14 -16
-19 0 -6 5 -7 10 -4 6 3 10 1 10 -4 0 -6 -8 -11 -17 -11 -17 -1 -17 -1 -1 -11
9 -5 15 -16 12 -24 -4 -8 -9 -13 -13 -11 -4 3 -8 -4 -8 -15 -1 -10 3 -19 8
-19 6 0 7 4 4 10 -4 6 1 7 11 3 15 -5 15 -7 0 -15 -9 -5 -16 -14 -16 -19 0 -6
5 -7 10 -4 6 3 10 1 10 -4 0 -6 -8 -11 -17 -11 -17 -1 -17 -1 -1 -11 9 -5 15
-16 12 -24 -4 -8 -9 -13 -13 -11 -4 3 -8 -4 -8 -15 -1 -10 3 -19 8 -19 6 0 7
4 4 10 -4 6 1 7 11 3 15 -5 15 -7 0 -15 -9 -5 -16 -14 -16 -19 0 -6 4 -7 10
-4 6 3 10 1 10 -4 0 -6 -8 -11 -17 -11 -17 -1 -17 -1 -1 -11 9 -5 15 -16 12
-24 -4 -8 -9 -13 -13 -11 -4 3 -8 -4 -8 -15 -1 -10 3 -19 8 -19 6 0 7 4 4 10
-4 6 1 7 11 3 15 -5 15 -7 0 -15 -9 -5 -16 -14 -16 -19 0 -6 5 -7 10 -4 6 3
10 1 10 -4 0 -6 -8 -11 -17 -11 -17 -1 -17 -1 -1 -11 9 -5 15 -16 12 -24 -4
-8 -9 -13 -13 -11 -4 3 -8 -4 -8 -15 -1 -10 3 -19 8 -19 6 0 7 4 4 10 -4 6 1
7 11 3 15 -5 15 -7 0 -15 -9 -5 -16 -14 -16 -19 0 -6 5 -7 10 -4 6 3 10 1 10
-4 0 -6 -8 -11 -17 -11 -17 -1 -17 -1 -1 -11 9 -5 15 -16 12 -24 -4 -8 -9 -13
-13 -11 -4 3 -8 -4 -8 -15 -1 -10 3 -19 8 -19 6 0 7 4 4 10 -4 6 1 7 11 3 15
-5 15 -7 0 -15 -9 -5 -16 -14 -16 -19 0 -6 5 -7 10 -4 5 3 10 1 10 -4 0 -6 -7
-11 -15 -11 -15 0 -16 -24 -2 -47 4 -7 0 -16 -9 -21 -9 -5 -17 -20 -17 -35 -1
-14 -4 -24 -6 -21 -2 2 -10 -4 -18 -14 -8 -9 -12 -12 -9 -5 4 6 2 14 -4 18 -5
3 -10 0 -10 -8 0 -8 -7 -18 -16 -21 -10 -4 -13 -2 -8 7 4 6 4 9 -1 5 -4 -4
-15 -2 -24 5 -14 11 -14 10 -2 -5 7 -10 12 -18 10 -19 -24 -6 -59 -4 -59 4 0
6 -7 2 -16 -9 -8 -10 -12 -12 -8 -4 4 9 3 12 -2 7 -15 -14 -12 -197 3 -197 7
0 13 -5 13 -11 0 -5 -6 -7 -12 -3 -7 4 -9 3 -5 -2 4 -4 21 -9 38 -9 22 -1 28
3 24 14 -5 12 -3 12 11 0 20 -16 54 -22 54 -10 0 6 -8 8 -18 6 -11 -2 -19 3
-19 11 0 9 4 11 12 4 7 -5 14 -8 17 -5 3 3 10 -1 17 -9 12 -14 51 -11 51 5 0
5 5 9 11 9 6 0 8 -8 5 -17 -5 -15 -4 -15 9 1 11 14 15 16 15 5 0 -12 2 -12 10
1 9 13 11 13 20 0 8 -13 10 -13 10 2 0 11 5 15 14 12 8 -3 17 -1 21 5 3 6 12
11 18 11 8 0 8 -3 -1 -9 -11 -7 -10 -9 3 -14 9 -4 13 -3 10 3 -3 6 -1 10 5 10
6 0 8 5 4 12 -5 7 -2 9 9 5 9 -3 18 1 21 10 4 9 13 13 22 9 14 -5 15 -4 4 9
-11 13 -10 14 5 8 15 -5 17 -3 12 12 -6 15 -5 16 8 5 13 -11 14 -10 9 4 -4 9
-1 16 6 16 7 0 10 7 6 15 -3 8 -2 15 2 15 5 0 17 7 28 16 10 8 14 13 8 10 -16
-8 -11 49 7 70 18 22 23 58 7 48 -9 -5 -9 -2 1 9 9 12 10 17 2 17 -7 0 -9 5
-5 12 11 18 22 88 14 88 -4 0 -4 18 0 40 4 22 4 40 0 40 -4 0 -4 18 0 40 4 22
5 40 1 40 -3 0 -6 23 -6 50 0 28 3 50 7 50 4 0 3 14 -2 30 -5 17 -5 30 0 30 4
0 4 16 0 35 -5 24 -4 35 4 35 6 0 4 5 -4 10 -12 8 -12 10 -1 10 11 0 11 3 1
15 -7 9 -8 15 -2 15 6 0 7 13 2 35 -5 24 -4 35 4 35 6 0 4 5 -4 10 -12 8 -12
10 -1 10 11 0 11 3 1 15 -7 9 -8 15 -2 15 6 0 7 13 2 35 -5 24 -4 35 4 35 6 0
4 5 -4 10 -12 8 -12 10 -1 10 11 0 11 3 1 15 -7 9 -8 15 -2 15 6 0 7 13 2 35
-5 24 -4 35 4 35 6 0 4 5 -4 10 -12 8 -12 10 -1 10 11 0 11 3 1 15 -7 9 -8 15
-2 15 6 0 7 13 2 35 -5 23 -4 36 4 39 8 3 8 5 0 5 -8 1 -9 14 -4 41 4 22 4 40
0 40 -4 0 -4 18 0 40 4 22 4 40 0 40 -4 0 -4 18 0 40 4 22 5 40 1 40 -10 0 -7
85 4 92 6 4 2 8 -7 8 -10 0 -18 6 -18 13 0 9 -3 8 -9 -2 -7 -11 -9 -11 -14 0
-3 9 -6 7 -6 -6 -1 -16 -3 -17 -10 -6 -11 17 -39 23 -47 10 -4 -6 -11 -6 -19
1 -10 8 -15 8 -20 0 -5 -8 -11 -7 -22 2 -21 17 -22 17 -39 -12 -12 -20 -14
-21 -12 -5 2 15 -3 20 -24 20 -20 1 -24 -2 -17 -11 8 -9 5 -11 -10 -7 -12 3
-18 9 -15 14 3 5 3 9 0 9 -3 0 -7 -3 -9 -7z m1 -1308 c-3 -3 -9 2 -12 12 -6
14 -5 15 5 6 7 -7 10 -15 7 -18z m276 -73 c3 -5 -1 -9 -9 -9 -8 0 -12 4 -9 9
3 4 7 8 9 8 2 0 6 -4 9 -8z m-449 -251 c3 -5 2 -12 -3 -15 -5 -3 -9 1 -9 9 0
17 3 19 12 6z m120 0 c3 -5 2 -12 -3 -15 -5 -3 -9 1 -9 9 0 17 3 19 12 6z"/>
<path d="M1515 3859 c-4 -6 -5 -12 -2 -15 2 -3 7 2 10 11 7 17 1 20 -8 4z"/>
<path d="M1486 3763 c-4 -5 -21 -9 -37 -9 -16 -1 -40 -2 -54 -3 -14 0 -25 -6
-25 -12 0 -5 6 -7 13 -3 6 4 9 3 4 -1 -4 -5 -17 -10 -29 -12 -18 -3 -19 -1 -7
14 11 14 8 14 -11 -2 -14 -11 -29 -26 -33 -33 -5 -7 -12 -10 -18 -7 -5 4 -9 1
-9 -4 0 -6 -3 -10 -7 -9 -14 3 -43 -14 -43 -25 0 -7 4 -7 12 1 20 20 30 14 11
-6 -10 -11 -21 -17 -25 -15 -3 2 -13 -10 -21 -26 -11 -22 -12 -32 -3 -41 8
-10 6 -10 -10 -2 -16 9 -21 8 -21 -3 0 -8 5 -11 11 -8 6 4 3 -2 -6 -13 -14
-16 -15 -23 -5 -34 10 -10 8 -12 -7 -6 -15 5 -17 4 -7 -8 9 -11 9 -15 -1 -19
-10 -4 -10 -6 0 -6 6 -1 12 -6 12 -12 0 -6 -7 -8 -16 -5 -9 4 -13 2 -8 -5 4
-6 0 -15 -7 -20 -11 -7 -11 -9 -1 -9 7 0 11 -4 7 -9 -3 -5 0 -13 6 -17 8 -5 9
-3 4 6 -5 9 -4 11 4 6 9 -6 9 -11 0 -22 -6 -8 -9 -17 -5 -21 3 -3 6 -1 6 4 0
6 8 10 18 8 9 -2 21 -4 25 -4 5 -1 5 -5 2 -11 -3 -5 -1 -10 4 -10 6 0 11 6 11
13 0 9 3 9 9 -1 11 -19 131 -23 124 -5 -3 8 2 11 16 8 11 -2 23 0 26 5 3 5 15
7 28 5 21 -4 21 -3 4 9 -13 10 -15 15 -5 18 11 4 11 8 0 20 -10 13 -10 18 -1
24 8 5 9 3 4 -6 -5 -9 -4 -11 4 -6 9 6 9 11 0 22 -6 8 -7 14 -2 14 6 0 9 11 8
25 -2 14 1 23 6 19 5 -3 9 1 9 8 0 10 3 9 11 -2 9 -12 10 -11 6 8 -4 15 -1 20
6 15 19 -12 36 -12 44 -1 3 6 1 8 -5 4 -6 -3 -13 -3 -16 2 -2 4 8 8 24 7 23 0
26 -2 17 -14 -9 -12 -9 -13 1 -7 7 4 12 2 12 -6 0 -10 3 -9 11 2 8 12 10 10 5
-10 -4 -23 -4 -23 8 -7 12 15 14 12 14 -30 1 -26 7 -50 14 -55 12 -7 4 -12
-14 -9 -7 1 -5 -9 8 -46 13 -34 12 -53 -2 -42 -9 8 -11 5 -7 -9 4 -16 0 -19
-21 -17 -14 2 -30 -3 -37 -11 -6 -7 -16 -11 -22 -7 -6 3 -7 1 -3 -5 7 -12 -4
-15 -49 -15 -19 1 -19 1 0 -14 19 -13 17 -14 -14 -8 -28 5 -32 3 -27 -11 5
-13 4 -15 -7 -5 -11 9 -17 8 -26 -2 -6 -8 -7 -18 -3 -23 4 -4 0 -3 -9 4 -13
10 -19 10 -28 -1 -6 -8 -8 -16 -5 -19 2 -3 -2 -8 -11 -12 -9 -3 -13 -2 -10 4
3 5 -1 7 -9 4 -9 -3 -12 -12 -9 -21 4 -9 2 -14 -3 -11 -5 4 -19 1 -31 -5 -20
-11 -23 -15 -23 -34 0 -5 -4 -3 -8 3 -4 6 -14 3 -26 -10 -16 -16 -16 -18 -3
-13 9 3 19 2 22 -4 4 -5 1 -8 -6 -7 -7 2 -13 -2 -14 -9 0 -17 -15 -29 -15 -12
0 11 -2 11 -10 -1 -5 -8 -7 -23 -4 -34 4 -11 2 -16 -4 -12 -12 7 -22 -16 -22
-50 0 -14 -3 -23 -7 -21 -5 3 -8 -5 -8 -18 0 -13 3 -21 8 -18 9 6 9 -1 -3 -31
-6 -17 -6 -26 1 -26 6 0 6 -7 -1 -20 -7 -14 -7 -20 0 -20 5 0 10 -5 10 -11 0
-5 -5 -7 -12 -3 -7 5 -8 3 -2 -7 12 -19 12 -32 -1 -42 -5 -5 1 -5 14 -2 17 5
21 4 16 -5 -9 -15 15 -61 28 -53 6 3 7 1 3 -5 -4 -7 -1 -12 6 -12 9 0 10 -2 2
-8 -9 -5 -8 -11 2 -20 9 -8 14 -9 14 -2 0 7 6 5 15 -4 18 -17 20 -30 3 -20 -7
4 -8 3 -4 -5 4 -6 11 -9 16 -6 11 7 61 -15 78 -35 8 -8 11 -9 7 -2 -8 15 7 16
23 0 9 -9 12 -9 12 2 0 13 2 13 10 0 5 -8 10 -10 10 -4 0 5 18 9 41 8 31 -1
39 2 35 13 -4 11 -1 11 14 3 16 -9 18 -8 13 6 -5 13 -2 15 17 9 15 -5 20 -4
16 4 -4 6 -2 11 4 11 6 0 8 5 4 12 -5 8 -2 9 10 5 9 -4 14 -3 11 2 -3 5 -1 12
5 16 6 4 8 11 5 16 -3 5 2 6 11 2 12 -4 15 -3 10 5 -4 7 -2 12 3 12 6 0 10 3
10 8 -3 18 2 22 15 10 10 -9 11 -17 4 -25 -7 -9 -7 -13 1 -13 9 0 9 -5 0 -21
-8 -15 -8 -19 0 -15 6 4 11 1 12 -6 2 -46 13 -67 23 -43 4 11 2 14 -6 9 -7 -4
-8 -3 -4 5 6 8 12 9 20 2 7 -6 17 -7 21 -3 5 4 5 1 1 -6 -4 -7 -13 -9 -19 -6
-7 4 -9 3 -4 -1 12 -14 46 -13 58 2 8 8 8 13 1 13 -6 0 -13 -6 -15 -12 -4 -10
-6 -10 -6 -1 -1 19 19 26 35 12 13 -10 17 -10 25 2 6 10 9 10 9 2 0 -7 10 -13
23 -13 13 0 29 6 37 13 12 10 12 9 2 -4 -11 -15 -9 -17 11 -15 27 1 58 26 35
26 -7 1 -2 8 12 16 14 8 17 13 8 10 -20 -6 -25 10 -5 17 7 3 4 6 -7 6 -14 1
-16 4 -7 14 8 10 7 17 -1 25 -9 9 -9 12 1 12 7 0 9 4 6 10 -12 20 -14 50 -2
50 8 0 7 3 -2 9 -8 5 -11 16 -7 26 4 11 0 23 -11 32 -10 8 -12 11 -4 7 9 -4
12 -2 9 7 -3 8 2 20 11 27 9 8 10 10 2 6 -9 -4 -12 -2 -9 7 3 8 1 22 -4 33 -7
13 -7 16 1 12 6 -4 11 -2 11 3 0 6 -4 11 -10 11 -5 0 -10 5 -10 11 0 6 7 8 16
5 15 -6 15 -4 0 19 -10 14 -12 25 -6 25 6 0 8 5 5 10 -4 6 -2 17 5 25 6 7 7
16 2 19 -11 6 -9 36 3 55 6 10 4 12 -5 6 -8 -5 -11 -3 -8 6 3 8 1 22 -4 33 -7
13 -7 16 1 12 6 -4 11 -2 11 3 0 6 -4 11 -10 11 -5 0 -10 5 -10 11 0 6 7 8 16
5 15 -6 15 -4 0 19 -10 14 -12 25 -6 25 6 0 8 5 5 10 -4 6 -2 17 5 25 6 7 7
16 2 19 -11 6 -9 36 3 55 6 10 4 12 -5 6 -8 -5 -11 -3 -8 6 3 8 1 22 -4 33 -7
13 -7 16 1 12 6 -4 11 -2 11 3 0 6 -4 11 -10 11 -5 0 -10 5 -10 11 0 6 7 8 16
5 14 -5 15 -4 4 9 -7 8 -15 13 -19 11 -4 -3 -7 4 -7 15 0 12 4 15 10 9 6 -6
14 -10 20 -10 5 0 -1 9 -13 19 -14 12 -18 22 -11 26 8 5 8 11 -1 21 -6 8 -8
14 -4 14 4 0 2 6 -4 13 -6 8 -8 17 -4 21 4 4 -2 9 -14 12 -14 4 -19 12 -16 24
3 10 0 21 -6 24 -7 5 -9 1 -5 -11 6 -15 4 -15 -9 2 -8 11 -13 23 -10 27 5 9
-38 28 -49 22 -3 -2 -4 6 -1 18 3 17 2 19 -5 10 -8 -12 -13 -12 -33 0 -13 7
-27 18 -31 23 -3 6 -29 10 -57 9 -30 0 -51 4 -51 10 0 7 -3 8 -8 1 -9 -13 -64
-16 -56 -4 6 11 0 12 -10 2z m369 -223 c3 -5 1 -10 -4 -10 -6 0 -11 5 -11 10
0 6 2 10 4 10 3 0 8 -4 11 -10z m-521 -182 c-3 -4 -9 -8 -15 -8 -5 0 -9 4 -9
8 0 5 7 9 15 9 8 0 12 -4 9 -9z m222 -70 c4 -7 3 -8 -4 -4 -7 4 -12 2 -12 -5
0 -7 -3 -10 -6 -6 -6 5 3 27 11 27 2 0 7 -5 11 -12z m321 6 c-3 -3 -12 -4 -19
-1 -8 3 -5 6 6 6 11 1 17 -2 13 -5z m-290 -158 c-4 -9 -1 -13 6 -10 9 3 13 -5
12 -25 0 -16 -4 -27 -9 -23 -5 3 -7 -2 -3 -11 3 -10 2 -17 -3 -17 -6 0 -10 -5
-10 -11 0 -5 5 -7 12 -3 8 5 9 2 5 -10 -4 -10 -4 -23 0 -29 11 -18 11 -47 0
-40 -6 4 -8 0 -4 -10 3 -10 2 -17 -3 -17 -6 0 -10 -5 -10 -11 0 -5 4 -8 9 -4
6 3 8 -11 5 -37 -6 -50 -11 -59 -28 -52 -7 3 -18 -5 -24 -18 -6 -13 -11 -17
-11 -9 -1 11 -4 11 -16 1 -12 -10 -18 -10 -32 1 -11 10 -14 10 -9 2 4 -8 1
-13 -9 -13 -9 0 -13 5 -10 10 3 6 0 10 -8 10 -8 0 -21 8 -28 18 -13 15 -12 16
4 3 15 -12 17 -12 11 3 -3 9 -11 16 -16 16 -6 0 -5 7 2 15 7 9 10 18 6 22 -3
3 -6 1 -6 -5 0 -7 -8 -12 -17 -11 -11 0 -13 3 -5 6 6 2 9 10 5 16 -10 16 -11
47 -2 41 5 -2 6 9 4 25 -2 22 0 28 10 25 7 -3 16 0 21 7 4 8 3 10 -4 5 -19
-11 -14 5 6 21 9 8 11 12 5 8 -19 -9 -16 -1 7 20 20 18 21 18 14 -1 -5 -15 -4
-16 4 -4 7 9 8 18 1 26 -7 9 -3 15 13 20 13 4 26 7 30 6 4 -1 5 5 2 13 -5 11
-2 14 12 9 11 -4 16 -3 12 1 -5 5 2 14 15 21 30 17 40 17 34 0z m290 -82 c-3
-3 -12 -4 -19 -1 -8 3 -5 6 6 6 11 1 17 -2 13 -5z"/>
<path d="M1580 3099 c0 -5 5 -7 10 -4 6 3 10 8 10 11 0 2 -4 4 -10 4 -5 0 -10
-5 -10 -11z"/>
<path d="M1580 2979 c0 -5 5 -7 10 -4 6 3 10 8 10 11 0 2 -4 4 -10 4 -5 0 -10
-5 -10 -11z"/>
<path d="M1410 2959 c0 -5 5 -7 10 -4 6 3 10 8 10 11 0 2 -4 4 -10 4 -5 0 -10
-5 -10 -11z"/>
<path d="M1175 3361 c-3 -5 -2 -12 3 -15 5 -3 9 1 9 9 0 17 -3 19 -12 6z"/>
<path d="M1395 3360 c-4 -6 -10 -8 -14 -6 -4 3 -8 -1 -8 -9 0 -20 13 -19 21 1
3 8 11 12 17 8 8 -4 9 -3 5 4 -9 15 -13 15 -21 2z"/>
<path d="M925 2780 c-3 -6 1 -7 9 -4 18 7 21 14 7 14 -6 0 -13 -4 -16 -10z"/>
<path d="M1730 2580 c0 -5 5 -10 11 -10 5 0 7 5 4 10 -3 6 -8 10 -11 10 -2 0
-4 -4 -4 -10z"/>
<path d="M1766 2577 c3 -10 9 -15 12 -12 3 3 0 11 -7 18 -10 9 -11 8 -5 -6z"/>
<path d="M1196 2302 c-3 -5 1 -9 9 -9 8 0 12 4 9 9 -3 4 -7 8 -9 8 -2 0 -6 -4
-9 -8z"/>
<path d="M1282 2299 c2 -9 -17 -12 -67 -13 -71 0 -93 -10 -73 -33 7 -9 6 -14
-6 -19 -13 -5 -14 -9 -5 -20 10 -12 9 -13 -5 -8 -9 3 -16 1 -16 -5 0 -6 5 -11
11 -11 6 0 4 -7 -5 -15 -8 -9 -12 -23 -9 -32 5 -12 3 -14 -8 -8 -11 7 -11 5 1
-10 14 -17 13 -18 -2 -12 -20 7 -25 -9 -5 -16 7 -3 5 -6 -5 -6 -10 -1 -18 -6
-18 -12 0 -5 6 -7 13 -3 9 6 9 4 2 -7 -6 -8 -12 -27 -14 -43 -2 -21 1 -26 11
-21 11 7 11 5 0 -6 -11 -12 -14 -12 -22 1 -7 11 -10 12 -10 2 0 -21 27 -45 33
-29 4 9 6 9 6 0 1 -7 6 -13 12 -13 5 0 7 5 3 12 -5 7 -3 8 7 2 23 -14 43 -10
62 11 10 11 16 15 13 9 -3 -7 0 -14 8 -17 9 -4 12 2 10 20 -1 15 4 26 14 30
25 10 32 26 19 42 -8 10 -8 13 -1 8 17 -10 34 16 29 42 -4 20 -2 21 13 10 9
-7 14 -10 10 -5 -4 4 2 17 12 29 15 15 17 24 8 34 -6 7 -8 16 -4 20 3 3 6 1 6
-5 0 -7 5 -12 11 -12 6 0 9 7 6 15 -4 8 -2 17 4 20 5 4 7 10 4 15 -3 5 0 12 6
16 8 5 9 3 4 -7 -8 -12 -6 -12 8 0 16 13 16 14 0 27 -17 13 -17 14 2 7 21 -7
21 -5 -9 17 -13 10 -17 10 -12 3 4 -7 4 -13 -1 -14 -4 0 -16 -2 -26 -4 -9 -2
-15 1 -12 5 3 5 1 12 -5 15 -6 4 -9 1 -8 -6z m28 -123 c0 -2 -8 -10 -17 -17
-16 -13 -17 -12 -4 4 13 16 21 21 21 13z m-75 -126 c-3 -5 -12 -10 -18 -10 -7
0 -6 4 3 10 19 12 23 12 15 0z"/>
<path d="M1050 1883 c0 -15 -2 -16 -10 -3 -7 12 -10 12 -10 1 0 -7 -6 -11 -15
-7 -8 3 -15 1 -15 -4 0 -5 -9 -7 -20 -5 -13 2 -21 -3 -26 -17 -5 -16 -8 -18
-15 -7 -7 11 -9 10 -9 -5 0 -16 -2 -17 -17 -5 -15 13 -15 12 -4 -10 8 -14 9
-21 2 -17 -6 4 -17 -8 -25 -29 -8 -19 -18 -35 -21 -35 -3 0 -4 4 0 9 3 5 1 12
-3 15 -5 3 -8 -10 -7 -29 1 -19 -3 -35 -7 -35 -5 0 -7 -16 -4 -35 4 -21 2 -35
-5 -35 -5 0 -7 5 -4 10 3 6 2 10 -4 10 -11 0 -7 -72 6 -93 4 -7 -2 -5 -12 3
-14 11 -17 12 -10 1 4 -7 8 -37 9 -65 1 -28 4 -56 9 -63 4 -6 2 -15 -4 -19 -8
-5 -9 -3 -4 6 5 8 4 11 -3 6 -6 -4 -9 -13 -5 -22 3 -8 10 -11 17 -7 7 5 3 0
-7 -9 -16 -15 -16 -18 -4 -18 9 0 19 -4 22 -10 3 -5 0 -7 -9 -4 -11 4 -13 0
-9 -18 3 -13 10 -28 14 -34 5 -6 3 -11 -6 -11 -8 0 -11 5 -8 11 3 6 2 7 -2 3
-12 -10 -15 -38 -4 -31 5 3 9 -11 9 -31 0 -20 3 -34 8 -32 4 3 8 -6 8 -19 1
-13 -2 -22 -6 -19 -17 10 -19 -13 -3 -26 14 -12 16 -12 8 1 -7 13 -6 13 6 1
10 -9 11 -15 3 -18 -7 -2 -10 -13 -7 -24 3 -11 11 -18 19 -15 9 3 11 0 7 -11
-5 -12 -3 -14 8 -8 11 7 12 6 2 -6 -14 -17 0 -39 24 -39 7 0 10 -6 7 -14 -3
-8 0 -17 7 -22 8 -4 10 -3 5 4 -4 7 -1 12 8 12 9 0 13 -7 11 -20 -3 -17 -1
-19 17 -9 12 6 18 7 14 1 -5 -8 18 -25 27 -20 1 1 11 -4 23 -10 16 -8 24 -8
34 1 10 10 11 9 5 -2 -6 -11 -4 -13 8 -8 10 4 17 1 17 -6 1 -7 7 -1 14 12 11
20 14 21 19 7 5 -11 3 -15 -5 -10 -7 5 -8 3 -3 -5 5 -9 11 -9 17 -3 6 6 17 8
26 5 11 -5 13 -3 7 8 -7 10 -1 9 18 -4 20 -13 25 -13 21 -3 -7 19 16 32 27 15
7 -12 9 -12 9 0 0 8 6 11 16 7 8 -3 12 -2 9 4 -3 6 0 10 9 10 8 0 16 -5 18
-12 3 -7 7 -5 11 6 4 11 3 15 -4 10 -7 -4 -10 -1 -7 7 3 8 13 13 22 11 9 -2
15 3 14 10 -2 7 5 12 15 12 10 -1 16 1 13 4 -3 3 -1 11 4 18 6 6 9 18 8 25 -2
8 4 13 12 11 8 -2 12 0 8 4 -4 4 0 13 10 21 16 12 16 13 -2 7 -16 -6 -17 -4
-7 14 7 12 8 22 4 22 -4 0 -1 5 7 10 13 8 13 10 1 10 -11 0 -10 4 5 16 10 8
14 13 7 10 -6 -4 -14 -2 -18 4 -3 5 2 10 11 10 16 0 16 1 -2 16 -10 8 -13 13
-6 9 6 -3 12 -1 12 4 0 6 -6 11 -12 11 -9 0 -8 4 2 10 11 7 11 10 2 10 -7 0
-11 4 -8 9 3 5 -8 8 -25 7 -16 -1 -32 1 -35 5 -2 4 -13 5 -24 2 -11 -3 -17
-10 -13 -17 4 -6 -1 -5 -11 3 -15 13 -19 13 -27 0 -8 -13 -13 -6 -10 14 0 4
-3 7 -9 7 -5 0 -10 -6 -10 -14 0 -8 -12 -24 -27 -35 -16 -12 -21 -20 -13 -19
20 4 19 -24 -2 -45 -11 -11 -17 -27 -14 -43 3 -14 1 -22 -5 -18 -5 3 -17 0
-26 -8 -9 -7 -14 -8 -10 -2 3 6 0 11 -8 11 -8 0 -12 -4 -9 -9 12 -18 -4 -6
-41 34 -22 23 -33 39 -24 36 9 -4 16 -1 16 8 0 7 -4 11 -9 8 -5 -4 -8 31 -7
79 1 46 -1 89 -5 95 -3 6 -2 13 4 17 6 4 7 12 4 18 -4 7 5 1 21 -13 27 -24 27
-24 16 -3 -11 22 -10 22 13 11 19 -8 29 -8 40 1 12 10 14 8 10 -11 -2 -13 -2
-17 2 -10 3 6 10 10 14 7 5 -3 19 0 30 7 17 11 22 11 29 0 12 -20 18 -19 35 3
14 20 15 20 25 -5 6 -16 10 -19 10 -8 1 9 6 18 13 20 19 7 68 -4 62 -13 -3 -5
-1 -9 4 -9 5 0 12 14 16 31 4 23 10 29 19 23 7 -5 5 -2 -5 8 -13 12 -15 18 -6
22 10 5 10 7 0 12 -10 5 -9 10 5 21 10 8 13 12 7 9 -7 -3 -15 1 -18 10 -5 12
-2 15 10 10 13 -5 14 -4 6 7 -7 8 -9 17 -5 20 3 4 1 7 -6 7 -7 0 -9 5 -6 10 4
6 11 8 16 5 5 -3 6 1 3 9 -3 9 -10 16 -16 16 -5 0 -6 5 -3 10 4 6 12 7 18 3 7
-3 3 4 -8 17 -12 14 -14 20 -5 15 13 -7 13 -6 2 7 -7 9 -11 28 -8 42 3 15 1
24 -5 21 -5 -4 -9 -1 -9 5 0 6 -4 9 -9 5 -6 -3 -8 8 -6 25 3 18 0 28 -5 25 -6
-4 -10 -1 -10 5 0 6 -5 8 -11 5 -6 -4 -9 0 -7 11 2 12 -2 18 -11 16 -12 -3
-12 -1 0 14 8 10 9 15 2 11 -6 -4 -14 -3 -18 2 -3 6 -12 8 -20 4 -8 -3 -15 0
-15 7 0 6 -8 10 -17 9 -31 -3 -44 1 -38 10 3 5 0 13 -6 17 -7 4 -9 3 -6 -3 10
-16 -23 -25 -40 -12 -18 16 -82 18 -76 3 2 -7 -1 -15 -8 -20 -8 -4 -10 -3 -5
4 4 7 2 12 -4 12 -6 0 -8 5 -5 10 3 6 1 10 -4 10 -6 0 -11 -8 -11 -17z m100
-3 c0 -5 -5 -10 -11 -10 -5 0 -7 5 -4 10 3 6 8 10 11 10 2 0 4 -4 4 -10z m-24
-149 c-6 -9 16 -21 37 -21 7 0 6 5 -3 11 -13 9 -13 10 0 6 8 -2 15 -13 15 -25
0 -12 9 -27 19 -35 15 -11 16 -16 6 -22 -8 -5 -11 -4 -7 2 3 5 0 10 -7 10 -8
0 -12 -6 -9 -14 3 -7 10 -13 17 -13 6 0 11 -11 11 -24 0 -13 -4 -22 -8 -19
-12 7 -4 -31 8 -39 6 -5 5 -8 -3 -8 -7 0 -10 -4 -7 -10 4 -6 -1 -7 -11 -3 -12
4 -15 3 -10 -5 10 -16 -6 -15 -23 1 -8 6 -11 7 -8 1 4 -7 -6 -10 -28 -10 -19
1 -35 5 -35 11 0 5 -5 3 -10 -5 -8 -13 -10 -12 -10 3 0 10 -4 16 -9 13 -8 -5
-7 32 4 97 3 17 1 26 -5 22 -5 -3 -7 1 -4 9 3 8 12 12 19 10 10 -4 12 1 8 17
-4 15 -3 20 5 15 7 -4 12 -1 12 9 0 15 1 15 16 1 19 -19 31 -21 15 -3 -6 8 -8
17 -4 20 9 10 15 8 9 -2z m64 -315 c0 -3 -4 -8 -10 -11 -5 -3 -10 -1 -10 4 0
6 5 11 10 11 6 0 10 -2 10 -4z m12 -243 c-6 -2 -9 -10 -6 -15 4 -7 2 -8 -5 -4
-13 9 -5 26 12 25 9 0 8 -2 -1 -6z m-127 -33 c16 -17 16 -20 3 -15 -9 4 -19
13 -22 21 -7 19 -2 18 19 -6z m-28 -175 c0 -8 -4 -12 -9 -9 -5 3 -6 10 -3 15
9 13 12 11 12 -6z"/>
<path d="M1170 1889 c0 -5 5 -7 10 -4 6 3 10 8 10 11 0 2 -4 4 -10 4 -5 0 -10
-5 -10 -11z"/>
<path d="M4425 1721 c-3 -5 -2 -12 3 -15 5 -3 9 1 9 9 0 17 -3 19 -12 6z"/>
<path d="M400 1475 c-7 -8 -15 -13 -19 -11 -12 8 -6 -99 6 -111 17 -18 26 -16
19 5 -5 14 -4 14 9 -2 8 -11 15 -16 15 -10 0 5 11 9 24 9 13 0 22 -3 20 -7 -2
-4 0 -9 6 -13 5 -3 10 1 10 10 0 13 4 14 20 5 11 -6 20 -7 20 -3 0 4 27 8 60
8 33 0 60 -4 60 -10 0 -7 3 -7 8 0 4 6 14 10 22 10 15 0 16 14 9 93 -3 29 -19
47 -19 21 0 -5 -5 -7 -10 -4 -6 4 -7 11 -4 17 4 7 2 8 -5 4 -6 -4 -9 -11 -6
-16 3 -5 0 -12 -6 -16 -8 -4 -9 -3 -5 4 5 8 -1 12 -18 12 -13 0 -26 3 -29 8
-2 4 -2 1 -1 -5 4 -15 -12 -18 -20 -4 -3 4 -17 6 -31 3 -15 -2 -25 0 -25 8 0
7 -6 6 -16 -4 -21 -21 -35 -20 -28 2 4 10 2 13 -3 7 -4 -5 -12 -11 -18 -12 -5
-1 -19 -5 -30 -9 -18 -7 -18 -6 -6 9 7 9 11 17 8 17 -2 0 -10 -7 -17 -15z
m125 -23 c-3 -3 -11 0 -18 7 -9 10 -8 11 6 5 10 -3 15 -9 12 -12z m39 2 c3 -8
2 -12 -4 -9 -6 3 -10 10 -10 16 0 14 7 11 14 -7z"/>
<path d="M1593 1472 c-9 -88 -7 -119 6 -114 11 4 13 0 8 -14 -6 -17 -6 -17 6
-2 9 12 18 14 30 7 12 -7 17 -6 17 3 0 9 3 9 10 -2 6 -10 10 -11 10 -2 0 6 5
12 11 12 5 0 7 -4 4 -10 -4 -6 1 -7 11 -3 14 5 16 3 11 -11 -4 -10 -3 -15 3
-11 6 3 10 12 10 18 0 7 9 13 20 13 22 0 27 -12 8 -19 -10 -4 -10 -6 0 -6 7
-1 15 6 18 14 5 11 11 12 25 4 14 -7 19 -6 19 3 0 9 3 9 10 -2 6 -10 10 -11
10 -2 0 6 5 12 11 12 5 0 8 -4 5 -9 -14 -21 31 3 48 26 11 15 15 23 9 20 -6
-4 -14 0 -17 9 -9 24 -7 31 4 14 8 -12 10 -10 10 9 0 17 -4 22 -16 17 -14 -5
-15 -4 -4 9 10 12 11 18 1 28 -10 9 -11 8 -5 -8 4 -11 4 -17 -1 -13 -4 4 -15
2 -23 -5 -13 -10 -15 -9 -9 6 3 9 2 17 -2 17 -5 0 -11 -5 -13 -12 -5 -13 -48
-19 -48 -6 0 4 5 8 10 8 6 0 10 5 10 11 0 5 -6 7 -12 3 -22 -14 -82 -14 -90
-1 -6 9 -8 9 -8 0 0 -14 -26 -18 -33 -5 -2 4 -2 1 -1 -5 5 -18 -12 -16 -32 5
-17 16 -17 16 -11 0 3 -10 2 -20 -3 -23 -6 -4 -10 1 -10 9 0 21 -15 28 -17 8z
m132 -20 c-3 -3 -11 0 -18 7 -9 10 -8 11 6 5 10 -3 15 -9 12 -12z m49 6 c-3
-4 -9 -8 -15 -8 -5 0 -9 4 -9 8 0 5 7 9 15 9 8 0 12 -4 9 -9z"/>
<path d="M1316 1402 c-3 -5 1 -9 9 -9 8 0 12 4 9 9 -3 4 -7 8 -9 8 -2 0 -6 -4
-9 -8z"/>
<path d="M1055 1390 c-3 -5 -1 -10 4 -10 6 0 11 5 11 10 0 6 -2 10 -4 10 -3 0
-8 -4 -11 -10z"/>
<path d="M1200 1275 c-8 -9 -8 -15 -2 -15 12 0 26 19 19 26 -2 2 -10 -2 -17
-11z"/>
<path d="M4165 1040 c-3 -6 1 -7 9 -4 18 7 21 14 7 14 -6 0 -13 -4 -16 -10z"/>
<path d="M3560 556 c0 -2 7 -7 16 -10 8 -3 12 -2 9 4 -6 10 -25 14 -25 6z"/>
<path d="M3595 520 c3 -5 8 -10 11 -10 2 0 4 5 4 10 0 6 -5 10 -11 10 -5 0 -7
-4 -4 -10z"/>
<path d="M4265 450 c-3 -5 -1 -10 4 -10 6 0 11 5 11 10 0 6 -2 10 -4 10 -3 0
-8 -4 -11 -10z"/>
</g>
</svg>
