<?xml version="1.0" standalone="no"?>
<!DOCTYPE svg PUBLIC "-//W3C//DTD SVG 20010904//EN"
 "http://www.w3.org/TR/2001/REC-SVG-20010904/DTD/svg10.dtd">
<svg version="1.0" xmlns="http://www.w3.org/2000/svg"
 width="70.000000pt" height="70.000000pt" viewBox="0 0 70.000000 70.000000"
 preserveAspectRatio="xMidYMid meet">
<metadata>
Created by potrace 1.11, written by Peter Selinger 2001-2013
</metadata>
<g transform="translate(0.000000,70.000000) scale(0.100000,-0.100000)"
fill="#000000" stroke="none">
<path d="M444 658 c-88 -18 -112 -80 -108 -288 2 -196 23 -243 113 -256 37 -5
55 -16 95 -55 27 -27 53 -49 57 -49 5 0 12 14 17 32 7 28 5 35 -17 54 l-26 22
26 29 c43 46 49 82 46 257 -3 171 -10 203 -54 231 -33 22 -101 32 -149 23z
m87 -84 c10 -13 14 -58 16 -168 2 -173 -1 -202 -28 -216 -26 -14 -67 -2 -74
21 -5 16 -9 279 -6 336 3 38 67 57 92 27z"/>
<path d="M225 605 c-3 -8 -7 -22 -10 -30 -8 -25 12 -17 35 15 l21 30 -21 0
c-11 0 -23 -7 -25 -15z"/>
<path d="M99 603 c-1 -5 -2 -50 -3 -102 -2 -76 -5 -95 -19 -103 -21 -11 -13
-28 13 -28 41 0 50 25 50 136 0 97 -1 104 -20 104 -11 0 -21 -3 -21 -7z"/>
<path d="M200 543 c-33 -13 -41 -53 -11 -53 10 0 22 8 26 18 7 16 8 15 15 -3
6 -16 1 -23 -24 -35 -23 -11 -32 -23 -34 -46 -4 -39 18 -60 47 -45 12 7 22 7
26 1 3 -5 11 -7 18 -4 10 3 13 26 11 76 -1 56 -5 74 -20 85 -19 14 -30 15 -54
6z m35 -105 c-1 -12 -7 -24 -13 -26 -16 -5 -15 35 1 41 6 3 12 6 13 6 0 1 0
-9 -1 -21z"/>
<path d="M173 327 c-21 -26 -24 -37 -11 -37 16 0 41 37 29 44 -5 3 -13 0 -18
-7z"/>
<path d="M130 249 c-13 -23 -11 -78 3 -96 21 -28 77 -5 77 31 0 14 -28 5 -34
-10 -7 -18 -19 -12 -22 11 -1 8 4 16 12 16 42 4 47 9 38 43 -5 20 -12 26 -35
26 -18 0 -32 -7 -39 -21z m45 -20 c-10 -15 -25 -10 -19 6 4 8 10 12 15 9 5 -3
7 -10 4 -15z"/>
<path d="M78 213 c-24 -6 -23 -19 2 -19 11 0 20 6 20 13 0 7 -1 12 -2 12 -2
-1 -11 -3 -20 -6z"/>
<path d="M250 210 c-27 -9 -26 -10 8 -14 13 -2 22 3 22 11 0 7 -1 13 -2 12 -2
-1 -14 -5 -28 -9z"/>
</g>
</svg>
